<mxfile host="Electron" modified="2023-11-23T10:29:45.444Z" agent="Mozilla/5.0 (Windows NT 10.0; Win64; x64) AppleWebKit/537.36 (KHTML, like Gecko) draw.io/22.1.2 Chrome/114.0.5735.289 Electron/25.9.4 Safari/537.36" etag="z6GQkwBC_F79rvCxqSsE" version="22.1.2" type="device">
  <diagram name="Seite-1" id="QdzWdG1R3KY4r53QQvJm">
    <mxGraphModel dx="366" dy="225" grid="1" gridSize="10" guides="1" tooltips="1" connect="1" arrows="1" fold="1" page="1" pageScale="1" pageWidth="827" pageHeight="1169" math="0" shadow="0">
      <root>
        <mxCell id="0" />
        <mxCell id="1" parent="0" />
        <mxCell id="0_i9kZBv1Gqm046SuMFW-1" value="PAP a_02_04_02_v01" style="text;html=1;strokeColor=none;fillColor=none;align=center;verticalAlign=middle;whiteSpace=wrap;rounded=0;" vertex="1" parent="1">
          <mxGeometry x="70" y="20" width="60" height="30" as="geometry" />
        </mxCell>
        <mxCell id="0_i9kZBv1Gqm046SuMFW-13" style="edgeStyle=orthogonalEdgeStyle;rounded=0;orthogonalLoop=1;jettySize=auto;html=1;" edge="1" parent="1" source="0_i9kZBv1Gqm046SuMFW-2" target="0_i9kZBv1Gqm046SuMFW-4">
          <mxGeometry relative="1" as="geometry" />
        </mxCell>
        <mxCell id="0_i9kZBv1Gqm046SuMFW-2" value="Start" style="strokeWidth=1;html=1;shape=mxgraph.flowchart.terminator;whiteSpace=wrap;" vertex="1" parent="1">
          <mxGeometry x="265" y="70" width="80" height="40" as="geometry" />
        </mxCell>
        <mxCell id="0_i9kZBv1Gqm046SuMFW-3" value="Ende" style="strokeWidth=1;html=1;shape=mxgraph.flowchart.terminator;whiteSpace=wrap;" vertex="1" parent="1">
          <mxGeometry x="265" y="645" width="80" height="40" as="geometry" />
        </mxCell>
        <mxCell id="0_i9kZBv1Gqm046SuMFW-14" style="edgeStyle=orthogonalEdgeStyle;rounded=0;orthogonalLoop=1;jettySize=auto;html=1;entryX=0.5;entryY=0;entryDx=0;entryDy=0;" edge="1" parent="1" source="0_i9kZBv1Gqm046SuMFW-4" target="0_i9kZBv1Gqm046SuMFW-5">
          <mxGeometry relative="1" as="geometry" />
        </mxCell>
        <mxCell id="0_i9kZBv1Gqm046SuMFW-4" value="int zuf1, zuf2, zaehler = 0" style="rounded=0;whiteSpace=wrap;html=1;" vertex="1" parent="1">
          <mxGeometry x="230" y="130" width="150" height="30" as="geometry" />
        </mxCell>
        <mxCell id="0_i9kZBv1Gqm046SuMFW-15" style="edgeStyle=orthogonalEdgeStyle;rounded=0;orthogonalLoop=1;jettySize=auto;html=1;entryX=0.5;entryY=0;entryDx=0;entryDy=0;" edge="1" parent="1" source="0_i9kZBv1Gqm046SuMFW-5" target="0_i9kZBv1Gqm046SuMFW-6">
          <mxGeometry relative="1" as="geometry" />
        </mxCell>
        <mxCell id="0_i9kZBv1Gqm046SuMFW-5" value="int i = 0" style="rounded=0;whiteSpace=wrap;html=1;" vertex="1" parent="1">
          <mxGeometry x="245" y="180" width="120" height="30" as="geometry" />
        </mxCell>
        <mxCell id="0_i9kZBv1Gqm046SuMFW-17" style="edgeStyle=orthogonalEdgeStyle;rounded=0;orthogonalLoop=1;jettySize=auto;html=1;entryX=0.5;entryY=0;entryDx=0;entryDy=0;" edge="1" parent="1" source="0_i9kZBv1Gqm046SuMFW-6" target="0_i9kZBv1Gqm046SuMFW-7">
          <mxGeometry relative="1" as="geometry" />
        </mxCell>
        <mxCell id="0_i9kZBv1Gqm046SuMFW-25" value="true" style="edgeLabel;html=1;align=center;verticalAlign=middle;resizable=0;points=[];" vertex="1" connectable="0" parent="0_i9kZBv1Gqm046SuMFW-17">
          <mxGeometry x="0.5667" y="1" relative="1" as="geometry">
            <mxPoint x="24" as="offset" />
          </mxGeometry>
        </mxCell>
        <mxCell id="0_i9kZBv1Gqm046SuMFW-28" style="edgeStyle=orthogonalEdgeStyle;rounded=0;orthogonalLoop=1;jettySize=auto;html=1;entryX=0.5;entryY=0;entryDx=0;entryDy=0;" edge="1" parent="1" target="0_i9kZBv1Gqm046SuMFW-12">
          <mxGeometry relative="1" as="geometry">
            <mxPoint x="402" y="585" as="targetPoint" />
            <mxPoint x="371.9999999999998" y="255" as="sourcePoint" />
            <Array as="points">
              <mxPoint x="440" y="255" />
              <mxPoint x="440" y="570" />
              <mxPoint x="305" y="570" />
            </Array>
          </mxGeometry>
        </mxCell>
        <mxCell id="0_i9kZBv1Gqm046SuMFW-29" value="false" style="edgeLabel;html=1;align=center;verticalAlign=middle;resizable=0;points=[];" vertex="1" connectable="0" parent="0_i9kZBv1Gqm046SuMFW-28">
          <mxGeometry x="-0.9074" relative="1" as="geometry">
            <mxPoint as="offset" />
          </mxGeometry>
        </mxCell>
        <mxCell id="0_i9kZBv1Gqm046SuMFW-6" value="i &amp;lt; 6000" style="rhombus;whiteSpace=wrap;html=1;" vertex="1" parent="1">
          <mxGeometry x="240" y="230" width="130" height="50" as="geometry" />
        </mxCell>
        <mxCell id="0_i9kZBv1Gqm046SuMFW-18" style="edgeStyle=orthogonalEdgeStyle;rounded=0;orthogonalLoop=1;jettySize=auto;html=1;entryX=0.5;entryY=0;entryDx=0;entryDy=0;" edge="1" parent="1" source="0_i9kZBv1Gqm046SuMFW-7" target="0_i9kZBv1Gqm046SuMFW-8">
          <mxGeometry relative="1" as="geometry" />
        </mxCell>
        <mxCell id="0_i9kZBv1Gqm046SuMFW-7" value="zuf1 = Zufallszahl()%6&amp;nbsp;" style="rounded=0;whiteSpace=wrap;html=1;" vertex="1" parent="1">
          <mxGeometry x="237.5" y="300" width="135" height="30" as="geometry" />
        </mxCell>
        <mxCell id="0_i9kZBv1Gqm046SuMFW-19" style="edgeStyle=orthogonalEdgeStyle;rounded=0;orthogonalLoop=1;jettySize=auto;html=1;entryX=0.5;entryY=0;entryDx=0;entryDy=0;" edge="1" parent="1" source="0_i9kZBv1Gqm046SuMFW-8" target="0_i9kZBv1Gqm046SuMFW-9">
          <mxGeometry relative="1" as="geometry" />
        </mxCell>
        <mxCell id="0_i9kZBv1Gqm046SuMFW-8" value="zuf2 = Zufallszahl()%6&amp;nbsp;" style="rounded=0;whiteSpace=wrap;html=1;" vertex="1" parent="1">
          <mxGeometry x="237.5" y="350" width="135" height="30" as="geometry" />
        </mxCell>
        <mxCell id="0_i9kZBv1Gqm046SuMFW-20" style="edgeStyle=orthogonalEdgeStyle;rounded=0;orthogonalLoop=1;jettySize=auto;html=1;entryX=0.5;entryY=0;entryDx=0;entryDy=0;" edge="1" parent="1" source="0_i9kZBv1Gqm046SuMFW-9" target="0_i9kZBv1Gqm046SuMFW-10">
          <mxGeometry relative="1" as="geometry" />
        </mxCell>
        <mxCell id="0_i9kZBv1Gqm046SuMFW-21" value="true" style="edgeLabel;html=1;align=center;verticalAlign=middle;resizable=0;points=[];" vertex="1" connectable="0" parent="0_i9kZBv1Gqm046SuMFW-20">
          <mxGeometry x="0.5467" relative="1" as="geometry">
            <mxPoint x="15" y="4" as="offset" />
          </mxGeometry>
        </mxCell>
        <mxCell id="0_i9kZBv1Gqm046SuMFW-31" style="edgeStyle=orthogonalEdgeStyle;rounded=0;orthogonalLoop=1;jettySize=auto;html=1;entryX=1;entryY=0.5;entryDx=0;entryDy=0;" edge="1" parent="1" source="0_i9kZBv1Gqm046SuMFW-9" target="0_i9kZBv1Gqm046SuMFW-11">
          <mxGeometry relative="1" as="geometry">
            <Array as="points">
              <mxPoint x="420" y="425" />
              <mxPoint x="420" y="535" />
            </Array>
          </mxGeometry>
        </mxCell>
        <mxCell id="0_i9kZBv1Gqm046SuMFW-32" value="false" style="edgeLabel;html=1;align=center;verticalAlign=middle;resizable=0;points=[];" vertex="1" connectable="0" parent="0_i9kZBv1Gqm046SuMFW-31">
          <mxGeometry x="-0.8171" relative="1" as="geometry">
            <mxPoint y="15" as="offset" />
          </mxGeometry>
        </mxCell>
        <mxCell id="0_i9kZBv1Gqm046SuMFW-9" value="zuf1 == zuf2" style="rhombus;whiteSpace=wrap;html=1;" vertex="1" parent="1">
          <mxGeometry x="240" y="400" width="130" height="50" as="geometry" />
        </mxCell>
        <mxCell id="0_i9kZBv1Gqm046SuMFW-22" style="edgeStyle=orthogonalEdgeStyle;rounded=0;orthogonalLoop=1;jettySize=auto;html=1;entryX=0.5;entryY=0;entryDx=0;entryDy=0;" edge="1" parent="1" source="0_i9kZBv1Gqm046SuMFW-10" target="0_i9kZBv1Gqm046SuMFW-11">
          <mxGeometry relative="1" as="geometry" />
        </mxCell>
        <mxCell id="0_i9kZBv1Gqm046SuMFW-10" value="zaehler ++" style="rounded=0;whiteSpace=wrap;html=1;" vertex="1" parent="1">
          <mxGeometry x="245" y="470" width="120" height="30" as="geometry" />
        </mxCell>
        <mxCell id="0_i9kZBv1Gqm046SuMFW-26" style="edgeStyle=orthogonalEdgeStyle;rounded=0;orthogonalLoop=1;jettySize=auto;html=1;entryX=0;entryY=0.5;entryDx=0;entryDy=0;" edge="1" parent="1" source="0_i9kZBv1Gqm046SuMFW-11" target="0_i9kZBv1Gqm046SuMFW-6">
          <mxGeometry relative="1" as="geometry">
            <Array as="points">
              <mxPoint x="170" y="535" />
              <mxPoint x="170" y="255" />
            </Array>
          </mxGeometry>
        </mxCell>
        <mxCell id="0_i9kZBv1Gqm046SuMFW-11" value="i ++" style="rounded=0;whiteSpace=wrap;html=1;" vertex="1" parent="1">
          <mxGeometry x="245" y="520" width="120" height="30" as="geometry" />
        </mxCell>
        <mxCell id="0_i9kZBv1Gqm046SuMFW-12" value="ausgabe(&quot;Sie hatten &quot;, zaehler; &quot; Mal das gleiche Ergebnis&quot;)" style="shape=parallelogram;perimeter=parallelogramPerimeter;whiteSpace=wrap;html=1;fixedSize=1;" vertex="1" parent="1">
          <mxGeometry x="120" y="585" width="370" height="30" as="geometry" />
        </mxCell>
        <mxCell id="0_i9kZBv1Gqm046SuMFW-24" style="edgeStyle=orthogonalEdgeStyle;rounded=0;orthogonalLoop=1;jettySize=auto;html=1;entryX=0.5;entryY=0;entryDx=0;entryDy=0;entryPerimeter=0;" edge="1" parent="1" source="0_i9kZBv1Gqm046SuMFW-12" target="0_i9kZBv1Gqm046SuMFW-3">
          <mxGeometry relative="1" as="geometry" />
        </mxCell>
      </root>
    </mxGraphModel>
  </diagram>
</mxfile>
